# xmcd CD database file
#
# Track frame offsets:
#	150
#	41239
#	74802
#	94722
#	149627
#
# Disc length: 2542 seconds
#
# Revision: 0
# Processed by: cddbd v1.5.2PL0 Copyright (c) Steve Scherf et al.
# Submitted via: CDex 1.70beta3
#
DISCID=5009ec05
DTITLE=Joshua Abrams and Natural Information Society - Simultonality
DYEAR=2017
DGENRE=Jazz
TTITLE0=Maroon Dune
TTITLE1=Ophiuchus
TTITLE2=St. Cloud
TTITLE3=Sideways Fall
TTITLE4=2128½
EXTD=YEAR: 2017
EXTT0=
EXTT1=
EXTT2=
EXTT3=
EXTT4=
PLAYORDER=
